<svg width="1066" height="1080" viewBox="0 0 1066 1080" fill="none" xmlns="http://www.w3.org/2000/svg">
<g clip-path="url(#clip0_38_638)">
<mask id="mask0_38_638" style="mask-type:alpha" maskUnits="userSpaceOnUse" x="54" y="77" width="906" height="904">
<path fill-rule="evenodd" clip-rule="evenodd" d="M886.963 670.922C964.575 461.642 857.261 228.408 647.271 149.978C437.281 71.5483 204.133 177.623 126.52 386.903C48.9078 596.183 156.221 829.418 366.212 907.848C576.202 986.277 809.35 880.202 886.963 670.922ZM931.221 687.453C1017.87 453.812 898.063 193.428 663.629 105.869C429.195 18.3101 168.908 136.733 82.2616 370.373C-4.38499 604.014 115.42 864.398 349.854 951.957C584.287 1039.52 844.575 921.093 931.221 687.453Z" fill="white"/>
</mask>
<g mask="url(#mask0_38_638)">
<path d="M475.573 576.743L4.7041 512.705L139.954 191.238L475.573 576.743Z" fill="white"/>
</g>
<mask id="mask1_38_638" style="mask-type:alpha" maskUnits="userSpaceOnUse" x="54" y="76" width="905" height="906">
<path fill-rule="evenodd" clip-rule="evenodd" d="M726.981 869.767C914.688 748.93 968.251 498.366 846.615 310.116C724.98 121.867 474.208 67.2184 286.5 188.055C98.7921 308.892 45.2299 559.457 166.865 747.706C288.501 935.955 539.273 990.604 726.981 869.767ZM752.617 909.443C962.174 774.54 1021.97 494.81 886.177 284.648C750.383 74.4861 470.421 13.4764 260.863 148.379C51.306 283.282 -8.49089 563.012 127.303 773.174C263.097 983.336 543.06 1044.35 752.617 909.443Z" fill="white"/>
</mask>
<g mask="url(#mask1_38_638)">
<path d="M453.215 548.359L113.461 215.594L414.68 39.5542L453.215 548.359Z" fill="white"/>
</g>
<mask id="mask2_38_638" style="mask-type:alpha" maskUnits="userSpaceOnUse" x="54" y="76" width="906" height="905">
<path fill-rule="evenodd" clip-rule="evenodd" d="M236.627 829.354C403.391 979.259 659.515 966.269 808.694 800.34C957.874 634.412 943.618 378.378 776.853 228.473C610.089 78.5679 353.965 91.5576 204.786 257.486C55.6062 423.415 69.8618 679.449 236.627 829.354ZM205.185 864.326C391.361 1031.68 677.298 1017.18 843.842 831.935C1010.39 646.692 994.472 360.855 808.295 193.501C622.119 26.1467 336.182 40.6485 169.638 225.892C3.09331 411.135 19.0083 696.971 205.185 864.326Z" fill="white"/>
</mask>
<g mask="url(#mask2_38_638)">
<path d="M473.988 481.777L704.456 67.9568L954.923 313.225L473.988 481.777Z" fill="white"/>
</g>
<mask id="mask3_38_638" style="mask-type:alpha" maskUnits="userSpaceOnUse" x="54" y="77" width="906" height="904">
<path fill-rule="evenodd" clip-rule="evenodd" d="M125.914 388.555C49.2115 598.172 157.535 830.943 367.861 908.463C578.186 985.983 810.869 878.898 887.571 669.28C964.273 459.663 855.95 226.892 645.624 149.372C435.298 71.8517 202.616 178.937 125.914 388.555ZM81.5846 372.216C-4.04602 606.233 116.886 866.099 351.694 952.643C586.503 1039.19 846.27 919.636 931.9 685.619C1017.53 451.602 896.599 191.736 661.79 105.192C426.982 18.6483 167.215 138.199 81.5846 372.216Z" fill="white"/>
</mask>
<g mask="url(#mask3_38_638)">
<path d="M537.704 480.951L1008.84 542.95L874.988 865.004L537.704 480.951Z" fill="white"/>
</g>
<mask id="mask4_38_638" style="mask-type:alpha" maskUnits="userSpaceOnUse" x="53" y="77" width="907" height="904">
<path fill-rule="evenodd" clip-rule="evenodd" d="M525.624 125.049C301.842 113.615 111.976 285.165 101.548 508.216C91.1197 731.268 264.078 921.356 487.86 932.791C711.643 944.225 901.509 772.675 911.937 549.623C922.365 326.572 749.407 136.483 525.624 125.049ZM527.822 78.0376C277.991 65.2724 66.0245 256.791 54.3824 505.806C42.7403 754.822 235.831 967.037 485.663 979.802C735.494 992.567 947.46 801.049 959.102 552.033C970.744 303.018 777.654 90.8028 527.822 78.0376Z" fill="white"/>
</mask>
<g mask="url(#mask4_38_638)">
<path d="M561.602 544.869L645.108 1011.95L296.207 979.129L561.602 544.869Z" fill="white"/>
</g>
<path fill-rule="evenodd" clip-rule="evenodd" d="M144.513 655.823L121.75 681.745C78.5141 730.979 123.787 807.1 187.818 792.831L221.53 785.319C337.051 759.576 456.364 811.253 517.069 913.321L534.784 943.107C568.432 999.682 654.586 980.484 660.511 915.09L663.631 880.661C674.321 762.683 759.772 665.377 875.292 639.634L909.005 632.122C973.036 617.853 981.009 529.866 920.64 503.72L888.855 489.954C779.942 442.782 713.441 330.967 724.131 212.989L727.251 178.559C733.176 113.166 651.95 77.9855 608.715 127.22L585.951 153.141C507.949 241.965 381.397 270.166 272.484 222.994L240.7 209.228C180.332 183.081 122.158 249.325 155.806 305.901L173.522 335.687C234.227 437.755 222.515 566.999 144.513 655.823ZM44.3436 613.638C-64.4836 737.564 49.4718 929.166 210.643 893.251L244.355 885.738C316.433 869.676 390.877 901.919 428.754 965.604L446.469 995.391C531.163 1137.79 748.018 1089.47 762.933 924.87L766.052 890.44C772.723 816.829 826.039 756.115 898.117 740.054L931.829 732.541C1093 696.626 1113.07 475.157 961.115 409.344L929.331 395.578C861.375 366.146 819.882 296.38 826.552 222.768L829.672 188.339C844.587 23.7384 640.136 -64.8124 531.308 59.113L508.545 85.0347C459.876 140.456 380.915 158.051 312.96 128.619L281.176 114.853C129.223 49.0397 -17.203 215.781 67.4912 358.184L85.2066 387.97C123.083 451.655 115.776 532.296 67.1069 587.717L44.3436 613.638Z" fill="white"/>
<path fill-rule="evenodd" clip-rule="evenodd" d="M144.513 655.823L121.75 681.745C78.5141 730.979 123.787 807.1 187.818 792.831L221.53 785.319C337.051 759.576 456.364 811.253 517.069 913.321L534.784 943.107C568.432 999.682 654.586 980.484 660.511 915.09L663.631 880.661C674.321 762.683 759.772 665.377 875.292 639.634L909.005 632.122C973.036 617.853 981.009 529.866 920.64 503.72L888.855 489.954C779.942 442.782 713.441 330.967 724.131 212.989L727.251 178.559C733.176 113.166 651.95 77.9855 608.715 127.22L585.951 153.141C507.949 241.965 381.397 270.166 272.484 222.994L240.7 209.228C180.332 183.081 122.158 249.325 155.806 305.901L173.522 335.687C234.227 437.755 222.515 566.999 144.513 655.823ZM44.3436 613.638C-64.4836 737.564 49.4718 929.166 210.643 893.251L244.355 885.738C316.433 869.676 390.877 901.919 428.754 965.604L446.469 995.391C531.163 1137.79 748.018 1089.47 762.933 924.87L766.052 890.44C772.723 816.829 826.039 756.115 898.117 740.054L931.829 732.541C1093 696.626 1113.07 475.157 961.115 409.344L929.331 395.578C861.375 366.146 819.882 296.38 826.552 222.768L829.672 188.339C844.587 23.7384 640.136 -64.8124 531.308 59.113L508.545 85.0347C459.876 140.456 380.915 158.051 312.96 128.619L281.176 114.853C129.223 49.0397 -17.203 215.781 67.4912 358.184L85.2066 387.97C123.083 451.655 115.776 532.296 67.1069 587.717L44.3436 613.638Z" fill="url(#paint0_linear_38_638)"/>
<mask id="mask5_38_638" style="mask-type:alpha" maskUnits="userSpaceOnUse" x="54" y="76" width="905" height="906">
<path fill-rule="evenodd" clip-rule="evenodd" d="M282.378 190.743C96.1628 313.854 45.6567 565.06 169.57 751.827C293.483 938.593 544.891 990.196 731.107 867.085C917.322 743.974 967.828 492.768 843.915 306.001C720.002 119.235 468.593 67.6316 282.378 190.743ZM256.262 151.379C48.3704 288.821 -8.01465 569.267 130.322 777.774C268.659 986.281 549.332 1043.89 757.223 906.449C965.114 769.007 1021.5 488.561 883.163 280.054C744.826 71.5471 464.153 13.9373 256.262 151.379Z" fill="white"/>
</mask>
<g mask="url(#mask5_38_638)">
<path d="M560.024 508.813L903.79 837.443L604.748 1017.13L560.024 508.813Z" fill="white"/>
</g>
<mask id="mask6_38_638" style="mask-type:alpha" maskUnits="userSpaceOnUse" x="54" y="76" width="905" height="906">
<path fill-rule="evenodd" clip-rule="evenodd" d="M116.759 636.352C176.863 852.1 400.187 978.897 615.568 919.561C830.949 860.226 956.826 637.226 896.723 421.478C836.619 205.73 613.295 78.933 397.914 138.269C182.533 197.604 56.656 420.604 116.759 636.352ZM71.3647 648.858C138.464 889.719 387.784 1031.28 628.236 965.033C868.687 898.791 1009.22 649.834 942.118 408.972C875.018 168.111 625.698 26.5541 385.247 92.7966C144.795 159.039 4.26515 407.996 71.3647 648.858Z" fill="white"/>
</mask>
<g mask="url(#mask6_38_638)">
<path d="M504.294 471.558L921.843 247.45L1001.27 588.403L504.294 471.558Z" fill="white"/>
</g>
<mask id="mask7_38_638" style="mask-type:alpha" maskUnits="userSpaceOnUse" x="54" y="76" width="906" height="905">
<path fill-rule="evenodd" clip-rule="evenodd" d="M755.409 210.505C578.731 72.4144 324.173 103.025 186.838 278.876C49.503 454.727 81.3966 709.228 258.075 847.319C434.753 985.41 689.311 954.799 826.646 778.948C963.981 603.097 932.087 348.596 755.409 210.505ZM784.355 173.442C587.111 19.277 302.922 53.4508 149.601 249.771C-3.7206 446.092 31.8855 730.217 229.129 884.382C426.373 1038.55 710.562 1004.37 863.883 808.053C1017.2 611.732 981.599 327.607 784.355 173.442Z" fill="white"/>
</mask>
<g mask="url(#mask7_38_638)">
<path d="M542.643 573.677L341.344 1002.49L74.5976 775.006L542.643 573.677Z" fill="white"/>
</g>
<mask id="mask8_38_638" style="mask-type:alpha" maskUnits="userSpaceOnUse" x="54" y="76" width="905" height="906">
<path fill-rule="evenodd" clip-rule="evenodd" d="M895.106 415.801C831.873 200.944 606.735 77.4103 392.248 139.88C177.76 202.351 55.1447 427.168 118.378 642.025C181.612 856.881 406.75 980.415 621.237 917.945C835.725 855.475 958.34 630.657 895.106 415.801ZM940.313 402.634C869.718 162.768 618.374 24.8545 378.92 94.5963C139.466 164.338 2.57778 415.325 73.172 655.191C143.766 895.058 395.11 1032.97 634.564 963.229C874.019 893.487 1010.91 642.5 940.313 402.634Z" fill="white"/>
</mask>
<g mask="url(#mask8_38_638)">
<path d="M510.024 586.227L95.7949 816.403L11.4208 476.634L510.024 586.227Z" fill="white"/>
</g>
<mask id="mask9_38_638" style="mask-type:alpha" maskUnits="userSpaceOnUse" x="53" y="77" width="907" height="904">
<path fill-rule="evenodd" clip-rule="evenodd" d="M493.47 933.007C717.389 941.362 904.853 767.216 912.182 544.041C919.511 320.866 743.93 133.174 520.011 124.818C296.092 116.463 108.628 290.609 101.299 513.784C93.97 736.959 269.551 924.651 493.47 933.007ZM491.925 980.044C741.909 989.372 951.194 794.955 959.376 545.802C967.559 296.649 771.54 87.109 521.556 77.7811C271.572 68.4531 62.2873 262.87 54.1049 512.023C45.9226 761.176 241.941 970.716 491.925 980.044Z" fill="white"/>
</mask>
<g mask="url(#mask9_38_638)">
<path d="M451.681 513.72L361.694 47.8198L711.023 75.8432L451.681 513.72Z" fill="white"/>
</g>
</g>
<defs>
<linearGradient id="paint0_linear_38_638" x1="703.145" y1="74.5887" x2="592.796" y2="1071.89" gradientUnits="userSpaceOnUse">
<stop stop-color="#22D3B6"/>
<stop offset="0.229167" stop-color="#3285FF"/>
<stop offset="0.473958" stop-color="#9A55FE"/>
<stop offset="0.734375" stop-color="#FF5BB1"/>
<stop offset="1" stop-color="#FFBF2F"/>
</linearGradient>
<clipPath id="clip0_38_638">
<rect width="1066" height="1080" fill="white"/>
</clipPath>
</defs>
</svg>
