<svg width="1318" height="425" viewBox="0 0 1318 425" fill="none" xmlns="http://www.w3.org/2000/svg">
<rect width="1318" height="425" fill="black"/>
<g clip-path="url(#clip0_248_1068)">
<mask id="mask0_248_1068" style="mask-type:alpha" maskUnits="userSpaceOnUse" x="450" y="140" width="140" height="140">
<path fill-rule="evenodd" clip-rule="evenodd" d="M478.415 256.506C503.918 279.421 543.195 277.312 566.143 251.793C589.091 226.275 587.02 187.011 561.517 164.096C536.014 141.18 496.736 143.29 473.788 168.808C450.84 194.326 452.912 233.59 478.415 256.506ZM473.578 261.884C502.05 287.467 545.899 285.112 571.518 256.623C597.137 228.134 594.825 184.3 566.353 158.717C537.882 133.134 494.032 135.49 468.413 163.978C442.794 192.467 445.106 236.301 473.578 261.884Z" fill="white"/>
</mask>
<g mask="url(#mask0_248_1068)">
<path d="M514.906 203.162L550.414 139.612L588.693 177.1L514.906 203.162Z" fill="white"/>
</g>
<mask id="mask1_248_1068" style="mask-type:alpha" maskUnits="userSpaceOnUse" x="450" y="140" width="140" height="140">
<path fill-rule="evenodd" clip-rule="evenodd" d="M461.688 188.903C449.857 221.118 466.358 256.814 498.544 268.632C530.729 280.45 566.412 263.914 578.243 231.699C590.074 199.483 573.573 163.787 541.387 151.969C509.201 140.152 473.518 156.687 461.688 188.903ZM454.904 186.412C441.696 222.378 460.118 262.229 496.05 275.422C531.982 288.616 571.818 270.155 585.026 234.19C598.234 198.224 579.813 158.373 543.88 145.179C507.948 131.986 468.112 150.446 454.904 186.412Z" fill="white"/>
</mask>
<g mask="url(#mask1_248_1068)">
<path d="M524.793 202.985L596.963 212.319L576.326 261.845L524.793 202.985Z" fill="white"/>
</g>
<mask id="mask2_248_1068" style="mask-type:alpha" maskUnits="userSpaceOnUse" x="450" y="140" width="140" height="140">
<path fill-rule="evenodd" clip-rule="evenodd" d="M523.021 148.204C488.791 146.54 459.674 172.994 457.988 207.29C456.301 241.585 482.683 270.736 516.913 272.399C551.144 274.063 580.26 247.609 581.947 213.314C583.633 179.018 557.251 149.867 523.021 148.204ZM523.377 140.976C485.162 139.118 452.656 168.651 450.773 206.939C448.89 245.227 478.343 277.771 516.558 279.628C554.773 281.485 587.278 251.952 589.161 213.664C591.044 175.376 561.591 142.833 523.377 140.976Z" fill="white"/>
</mask>
<g mask="url(#mask2_248_1068)">
<path d="M528.434 212.648L541.008 284.377L487.687 279.481L528.434 212.648Z" fill="white"/>
</g>
<mask id="mask3_248_1068" style="mask-type:alpha" maskUnits="userSpaceOnUse" x="450" y="140" width="140" height="140">
<path fill-rule="evenodd" clip-rule="evenodd" d="M579.615 192.861C569.968 159.964 535.443 141.103 502.5 150.735C469.557 160.366 450.672 194.843 460.318 227.74C469.965 260.637 504.49 279.498 537.433 269.866C570.376 260.235 589.261 225.758 579.615 192.861ZM586.558 190.831C575.789 154.104 537.244 133.048 500.467 143.801C463.689 154.554 442.606 193.044 453.375 229.77C464.145 266.497 502.689 287.553 539.466 276.8C576.244 266.047 597.327 227.558 586.558 190.831Z" fill="white"/>
</mask>
<g mask="url(#mask3_248_1068)">
<path d="M520.495 219.02L456.863 254.388L444.011 202.38L520.495 219.02Z" fill="white"/>
</g>
<mask id="mask4_248_1068" style="mask-type:alpha" maskUnits="userSpaceOnUse" x="450" y="140" width="140" height="140">
<path fill-rule="evenodd" clip-rule="evenodd" d="M553.633 262.463C582.477 243.873 590.785 205.448 572.191 176.639C553.596 147.831 515.14 139.548 486.296 158.138C457.451 176.729 449.143 215.154 467.737 243.962C486.332 272.771 524.788 281.054 553.633 262.463ZM557.552 268.535C589.753 247.781 599.029 204.883 578.27 172.721C557.511 140.559 514.578 131.312 482.376 152.066C450.175 172.821 440.899 215.719 461.658 247.881C482.417 280.043 525.35 289.29 557.552 268.535Z" fill="white"/>
</mask>
<g mask="url(#mask4_248_1068)">
<path d="M511.681 213.252L459.654 162.356L505.951 135.253L511.681 213.252Z" fill="white"/>
</g>
<path fill-rule="evenodd" clip-rule="evenodd" d="M464.329 229.9L460.824 233.882C454.167 241.447 461.082 253.092 470.915 250.876L476.092 249.71C493.833 245.713 512.122 253.579 521.394 269.193L524.099 273.75C529.239 282.405 542.469 279.424 543.408 269.4L543.901 264.122C545.594 246.038 558.751 231.088 576.492 227.091L581.669 225.924C591.502 223.709 592.765 210.222 583.511 206.242L578.639 204.146C561.944 196.966 551.787 179.861 553.48 161.776L553.973 156.499C554.912 146.475 542.461 141.12 535.804 148.684L532.299 152.667C520.289 166.314 500.854 170.692 484.159 163.512L479.287 161.417C470.034 157.437 461.077 167.615 466.216 176.27L468.922 180.827C478.193 196.441 476.339 216.253 464.329 229.9ZM448.974 223.48C432.218 242.52 449.623 271.832 474.374 266.255L479.551 265.089C490.62 262.595 502.032 267.503 507.817 277.245L510.522 281.802C523.458 303.587 556.761 296.084 559.122 270.853L559.616 265.575C560.672 254.291 568.882 244.963 579.951 242.469L585.128 241.303C609.879 235.727 613.056 201.778 589.764 191.761L584.892 189.665C574.476 185.186 568.138 174.513 569.194 163.229L569.688 157.951C572.049 132.72 540.71 119.242 523.954 138.282L520.449 142.264C512.955 150.779 500.829 153.511 490.413 149.031L485.541 146.936C462.249 136.919 439.703 162.537 452.639 184.322L455.345 188.879C461.13 198.621 459.973 210.982 452.479 219.497L448.974 223.48Z" fill="white"/>
<path fill-rule="evenodd" clip-rule="evenodd" d="M464.329 229.9L460.824 233.882C454.167 241.447 461.082 253.092 470.915 250.876L476.092 249.71C493.833 245.713 512.122 253.579 521.394 269.193L524.099 273.75C529.239 282.405 542.469 279.424 543.408 269.4L543.901 264.122C545.594 246.038 558.751 231.088 576.492 227.091L581.669 225.924C591.502 223.709 592.765 210.222 583.511 206.242L578.639 204.146C561.944 196.966 551.787 179.861 553.48 161.776L553.973 156.499C554.912 146.475 542.461 141.12 535.804 148.684L532.299 152.667C520.289 166.314 500.854 170.692 484.159 163.512L479.287 161.417C470.034 157.437 461.077 167.615 466.216 176.27L468.922 180.827C478.193 196.441 476.339 216.253 464.329 229.9ZM448.974 223.48C432.218 242.52 449.623 271.832 474.374 266.255L479.551 265.089C490.62 262.595 502.032 267.503 507.817 277.245L510.522 281.802C523.458 303.587 556.761 296.084 559.122 270.853L559.616 265.575C560.672 254.291 568.882 244.963 579.951 242.469L585.128 241.303C609.879 235.727 613.056 201.778 589.764 191.761L584.892 189.665C574.476 185.186 568.138 174.513 569.194 163.229L569.688 157.951C572.049 132.72 540.71 119.242 523.954 138.282L520.449 142.264C512.955 150.779 500.829 153.511 490.413 149.031L485.541 146.936C462.249 136.919 439.703 162.537 452.639 184.322L455.345 188.879C461.13 198.621 459.973 210.982 452.479 219.497L448.974 223.48Z" fill="url(#paint0_linear_248_1068)"/>
<mask id="mask5_248_1068" style="mask-type:alpha" maskUnits="userSpaceOnUse" x="450" y="140" width="140" height="140">
<path fill-rule="evenodd" clip-rule="evenodd" d="M578.149 231.952C590.12 199.788 573.774 164.021 541.639 152.063C509.505 140.106 473.751 156.487 461.781 188.651C449.81 220.815 466.156 256.582 498.291 268.539C530.425 280.496 566.179 264.116 578.149 231.952ZM584.922 234.472C598.286 198.564 580.037 158.633 544.162 145.284C508.287 131.935 468.372 150.223 455.008 186.131C441.644 222.038 459.893 261.969 495.768 275.318C531.643 288.667 571.558 270.38 584.922 234.472Z" fill="white"/>
</mask>
<g mask="url(#mask5_248_1068)">
<path d="M515.106 217.596L442.977 207.949L463.828 158.514L515.106 217.596Z" fill="white"/>
</g>
<mask id="mask6_248_1068" style="mask-type:alpha" maskUnits="userSpaceOnUse" x="450" y="140" width="140" height="140">
<path fill-rule="evenodd" clip-rule="evenodd" d="M485.667 158.551C457.051 177.491 449.209 216.014 468.153 244.595C487.096 273.175 525.65 280.991 554.266 262.05C582.882 243.11 590.723 204.587 571.78 176.006C552.837 147.426 514.283 139.611 485.667 158.551ZM481.674 152.527C449.727 173.672 440.973 216.68 462.121 248.587C483.27 280.494 526.312 289.219 558.259 268.074C590.205 246.929 598.96 203.922 577.811 172.015C556.663 140.107 513.621 131.382 481.674 152.527Z" fill="white"/>
</mask>
<g mask="url(#mask6_248_1068)">
<path d="M528.214 207.25L580.855 257.51L534.892 285.174L528.214 207.25Z" fill="white"/>
</g>
<mask id="mask7_248_1068" style="mask-type:alpha" maskUnits="userSpaceOnUse" x="450" y="140" width="140" height="140">
<path fill-rule="evenodd" clip-rule="evenodd" d="M460.068 226.872C469.234 259.905 503.481 279.265 536.562 270.114C569.642 260.962 589.029 226.765 579.863 193.731C570.697 160.698 536.449 141.338 503.369 150.489C470.289 159.641 450.902 193.838 460.068 226.872ZM453.096 228.801C463.329 265.679 501.563 287.293 538.494 277.076C575.425 266.859 597.068 228.681 586.835 191.803C576.602 154.924 538.368 133.31 501.437 143.527C464.506 153.744 442.863 191.922 453.096 228.801Z" fill="white"/>
</mask>
<g mask="url(#mask7_248_1068)">
<path d="M519.565 201.577L583.707 167.138L595.8 219.327L519.565 201.577Z" fill="white"/>
</g>
<mask id="mask8_248_1068" style="mask-type:alpha" maskUnits="userSpaceOnUse" x="450" y="140" width="140" height="140">
<path fill-rule="evenodd" clip-rule="evenodd" d="M558.23 161.339C531.208 140.236 492.17 145.05 471.038 172.091C449.905 199.132 454.68 238.16 481.702 259.263C508.724 280.366 547.761 275.552 568.894 248.511C590.027 221.47 585.252 182.442 558.23 161.339ZM562.684 155.639C532.516 132.08 488.935 137.454 465.343 167.643C441.75 197.832 447.08 241.403 477.248 264.962C507.415 288.522 550.997 283.147 574.589 252.959C598.182 222.77 592.852 179.199 562.684 155.639Z" fill="white"/>
</mask>
<g mask="url(#mask8_248_1068)">
<path d="M525.51 217.076L494.471 282.926L453.699 248.165L525.51 217.076Z" fill="white"/>
</g>
<mask id="mask9_248_1068" style="mask-type:alpha" maskUnits="userSpaceOnUse" x="450" y="140" width="140" height="140">
<path fill-rule="evenodd" clip-rule="evenodd" d="M517.766 272.438C552.015 273.627 580.763 246.77 581.977 212.453C583.191 178.136 556.411 149.353 522.163 148.164C487.914 146.976 459.166 173.832 457.952 208.149C456.738 242.466 483.518 271.249 517.766 272.438ZM517.511 279.671C555.746 280.998 587.84 251.016 589.196 212.704C590.551 174.392 560.654 142.258 522.419 140.931C484.183 139.604 452.089 169.587 450.734 207.898C449.378 246.21 479.275 278.344 517.511 279.671Z" fill="white"/>
</mask>
<g mask="url(#mask9_248_1068)">
<path d="M511.464 208.074L497.904 136.524L551.285 140.68L511.464 208.074Z" fill="white"/>
</g>
<path d="M643.576 176.845H656.014V158.545H670.883V176.845H688.754V188.855H670.883V227.17C670.883 230.982 671.693 233.794 673.313 235.605C674.981 237.416 677.554 238.321 681.033 238.321C683.75 238.321 686.323 237.94 688.754 237.178V250.903C685.751 252.046 682.415 252.618 678.746 252.618C674.028 252.618 669.953 251.641 666.522 249.687C663.139 247.686 660.541 244.826 658.73 241.109C656.919 237.392 656.014 232.984 656.014 227.885V188.855H643.576V176.845ZM729.723 252.618C722.241 252.618 715.521 250.926 709.564 247.543C703.655 244.159 699.032 239.513 695.696 233.604C692.36 227.694 690.692 221.07 690.692 213.731C690.692 206.392 692.313 199.768 695.553 193.858C698.841 187.901 703.345 183.255 709.064 179.919C714.782 176.535 721.192 174.844 728.293 174.844C735.346 174.844 741.637 176.535 747.165 179.919C752.693 183.255 757.006 187.878 760.103 193.787C763.201 199.696 764.75 206.344 764.75 213.731C764.75 215.59 764.654 217.258 764.464 218.735H705.847C706.419 222.881 707.801 226.527 709.993 229.672C712.185 232.77 714.997 235.176 718.428 236.892C721.859 238.607 725.672 239.465 729.865 239.465C734.488 239.465 738.444 238.464 741.732 236.463C745.02 234.414 747.546 231.554 749.309 227.885L762.319 233.175C759.317 239.227 755.004 243.993 749.381 247.471C743.805 250.903 737.252 252.618 729.723 252.618ZM749.095 205.725C748.809 202.389 747.736 199.387 745.878 196.718C744.067 194.001 741.637 191.881 738.587 190.356C735.537 188.783 732.105 187.997 728.293 187.997C722.765 187.997 718.047 189.593 714.139 192.786C710.231 195.979 707.634 200.292 706.347 205.725H749.095ZM763.4 176.845H775.838V158.545H790.707V176.845H808.578V188.855H790.707V227.17C790.707 230.982 791.517 233.794 793.137 235.605C794.805 237.416 797.379 238.321 800.858 238.321C803.574 238.321 806.147 237.94 808.578 237.178V250.903C805.576 252.046 802.24 252.618 798.57 252.618C793.852 252.618 789.778 251.641 786.346 249.687C782.963 247.686 780.366 244.826 778.555 241.109C776.744 237.392 775.838 232.984 775.838 227.885V188.855H763.4V176.845ZM836.823 252.618C832.105 252.618 827.816 251.594 823.956 249.544C820.143 247.495 817.141 244.707 814.949 241.181C812.756 237.607 811.66 233.651 811.66 229.314C811.66 224.835 812.876 220.832 815.306 217.305C817.736 213.779 821.263 210.967 825.886 208.87C830.508 206.726 836.013 205.486 842.398 205.153L860.984 204.224C860.841 198.791 859.459 194.74 856.838 192.071C854.217 189.355 850.262 187.997 844.972 187.997C840.921 187.997 837.514 188.783 834.75 190.356C831.986 191.928 829.722 194.383 827.959 197.719L814.663 192C817.57 186.376 821.549 182.111 826.6 179.204C831.7 176.297 837.823 174.844 844.972 174.844C851.405 174.844 856.91 176.059 861.485 178.489C866.107 180.872 869.634 184.327 872.064 188.855C874.495 193.334 875.71 198.719 875.71 205.01V250.617H860.984V239.465H860.341C857.815 243.564 854.503 246.78 850.405 249.116C846.354 251.451 841.827 252.618 836.823 252.618ZM826.958 228.743C826.958 232.269 828.221 235.009 830.747 236.963C833.272 238.917 836.823 239.894 841.398 239.894C845.401 239.894 848.88 239.155 851.834 237.678C854.789 236.201 857.053 234.104 858.625 231.388C860.198 228.671 860.984 225.502 860.984 221.88V215.089L842.827 216.304C837.633 216.638 833.677 217.925 830.961 220.165C828.292 222.357 826.958 225.216 826.958 228.743Z" fill="white"/>
</g>
<defs>
<linearGradient id="paint0_linear_248_1068" x1="550.319" y1="140.576" x2="533.86" y2="293.558" gradientUnits="userSpaceOnUse">
<stop stop-color="#22D3B6"/>
<stop offset="0.229167" stop-color="#3285FF"/>
<stop offset="0.473958" stop-color="#9A55FE"/>
<stop offset="0.734375" stop-color="#FF5BB1"/>
<stop offset="1" stop-color="#FFBF2F"/>
</linearGradient>
<clipPath id="clip0_248_1068">
<rect width="454" height="179" fill="white" transform="translate(432 123)"/>
</clipPath>
</defs>
</svg>
